<svg width="20" height="20" viewBox="0 0 20 20" fill="none" xmlns="http://www.w3.org/2000/svg">
<path d="M2.08337 9.99992C2.08337 6.26797 2.08337 4.40199 3.24274 3.24262C4.40211 2.08325 6.26809 2.08325 10 2.08325C13.732 2.08325 15.598 2.08325 16.7573 3.24262C17.9167 4.40199 17.9167 6.26797 17.9167 9.99992C17.9167 13.7319 17.9167 15.5978 16.7573 16.7572C15.598 17.9166 13.732 17.9166 10 17.9166C6.26809 17.9166 4.40211 17.9166 3.24274 16.7572C2.08337 15.5978 2.08337 13.7319 2.08337 9.99992Z" stroke="black" stroke-width="1.5"/>
<circle cx="13.75" cy="6.25" r="1.25" stroke="black" stroke-width="1.5"/>
<path d="M13.3333 18.3334C12.8171 16.4791 11.6121 14.8185 9.89712 13.6119C8.04801 12.3109 5.72636 11.6223 3.34641 11.669C3.06382 11.6683 2.78146 11.6773 2.5 11.696" stroke="black" stroke-width="1.5" stroke-linejoin="round"/>
<path d="M10.8334 14.9999C12.2513 13.8944 13.7788 13.3272 15.3219 13.3333C16.1969 13.3324 17.0677 13.5179 17.9167 13.8847" stroke="black" stroke-width="1.5" stroke-linejoin="round"/>
</svg>
